<svg xmlns="http://www.w3.org/2000/svg" data-name="Ebene 1" viewBox="0 0 464.05 463.21"><path d="M463.92 363.38v95c0 4.88 0 4.9-4.83 4.9H5.82c-5.84 0-5.84 0-5.84-5.92Q0 291.18 0 125V5.23C0 .15 0 .11 5.21.11h383.13Q424 .11 459.56 0c3.28 0 4.47.62 4.47 4.25q-.19 91.52-.1 183v1.87c-.1.94.4 2.26-.65 2.71-1.28.56-1.95-.78-2.66-1.57-10.33-11.6-21.49-22.26-34.72-30.56q-43.57-27.33-94.6-20.53a135.65 135.65 0 0 0-74.07 33.93c-23.29 20.81-38.44 46.6-44.4 77.45-6.61 34.14-1.7 66.58 15.64 96.76 18 31.34 44.21 53.35 78.9 64 50 15.33 95.4 5.68 135.61-27.84 6.34-5.29 11.63-11.62 17.36-17.51a6.9 6.9 0 0 1 3.58-2.58m-458 2.69c0 7.24.75 14.57-.18 21.69C4.31 398.55 9 406 16.43 412.87a64.65 64.65 0 0 0 70.76 11.62A62.4 62.4 0 0 0 106 411.17C120.91 396 126.78 378 124.24 357c-3.65-30.11-31-54.74-61.45-55.29-21.25-.38-38.53 7.94-52.37 23.78A17 17 0 0 0 5.76 338c.41 9.34.12 18.71.12 28.07ZM219.69 46.26a45.7 45.7 0 0 0 .84 11.67c8.73 41.66 54.33 59.67 88.74 38.27 29.83-18.56 35.92-62.36 11.8-88a6.54 6.54 0 0 0-5.2-2.33q-38.06.11-76.1 0A6 6 0 0 0 234.89 8c-9.55 10.6-14.69 23-15.2 38.26M94 172.21A45.15 45.15 0 0 0 48.46 217v.24c0 25.4 20.25 46 45.41 45.89a45.45 45.45 0 1 0 1.47-90.89c-.45-.04-.89-.04-1.34-.03M5.88 85.62v19.82c0 11.23.08 11.34 11.26 13.49a21.5 21.5 0 0 0 3 .32A33.78 33.78 0 1 0 8.76 54.52a4.27 4.27 0 0 0-2.94 4.55c.18 8.85.06 17.7.06 26.55m192 60.3a23.74 23.74 0 0 0-23.34-23.85c-12.91-.26-23.95 10.66-23.95 23.7a23.65 23.65 0 0 0 47.29.15m.05 237.08a23.52 23.52 0 0 0-23.61 23.43v.43c0 13 10.8 23.46 24.11 23.41 12.77-.06 23.27-10.9 23.17-23.92A23.36 23.36 0 0 0 198.23 383ZM114.46 79.06c-1.35 8.1 7.92 15.67 15.06 15.24 8.12-.49 14.94-7.16 14.8-15.23-.15-8.45-6.8-15.17-14.92-15.06-8.66.12-15.05 6.56-14.94 15.05m48.21 219.82c-6.84 0-12 4.89-12.11 11.44a12 12 0 0 0 11.69 12 11.7 11.7 0 0 0 11.83-11.57v-.25a11.3 11.3 0 0 0-11-11.62Z" data-name="Ebene 1-2" style="fill:#262626" transform="translate(.02 -.04)"/></svg>