<svg xmlns="http://www.w3.org/2000/svg" viewBox="0 0 437.4 165.6"><title>Element 1</title><g id="Ebene_2" data-name="Ebene 2"><g id="Ebene_1-2" data-name="Ebene 1"><path d="M222.9,88.21A42.33,42.33,0,0,1,200,106.76c1.09,2.11,2.79,2.57,4.53,2.87-14.56.55-23.34-7.76-28.89-19.92-5.83-12.76-7.58-26-1.51-39.38,3.26-7.19,8.65-10.46,16.32-9.75,6.31.57,11,5.05,12.73,12.35.78,3.34,1.47,6.75.88,10.29A20.82,20.82,0,0,0,201.11,56,8.74,8.74,0,0,0,187,54.67a17.75,17.75,0,0,0-4,7.92c-2.82,12.17-.84,23.62,5.47,34.76a48.59,48.59,0,0,0,12.87-5.69c12.67-7.8,20.78-26.88,13-42.93-3.2-6.57-13.12-14.2-19.34-13.48a.52.52,0,0,0,.24.7.59.59,0,0,0,.23,0C209,32.66,221.3,43.35,225.1,52.76c1.24,3.08-.56,6.07-.95,9.09-1.34,10.37-1.39,20.66,2.38,30.56,4.74,12.46,14.36,19.18,27.23,21.09a64.46,64.46,0,0,0,24.56-.81c2-.48,4-.84,5.18-3.11,1-1.9,3.47-1.59,5.54-2.1,2.29,4.21,6.62,4.61,10.53,5.51,10.16,2.34,20.28,2.42,30.15-1.6,7.69-3.14,12.36-8.63,13.18-17,.89-9-2.31-16.11-10.32-20.71-4.32-2.48-8.72-4.84-13.15-7.12A61.3,61.3,0,0,1,309,60.06c-3.3-2.64-5.33-6-4.59-10.37.81-4.77,3.78-7.75,8.3-9.19,7.17-2.27,14.3-1.46,21.4.49,1.17.32,2.26,1.09,3.47.76a1.68,1.68,0,0,0,.8-1.68,17.11,17.11,0,0,0-.36-2c-4.43-1.36-8.72-3.23-13.54-2.6,8.49-.3,16.75.63,24.74,4.38a91.43,91.43,0,0,1,0,15.87c-2.51.36-4.08-.82-5.77-1.5-7-2.84-14.18-4.83-21.86-3.11a12.81,12.81,0,0,0-2.49.77c-4.44,2-5.09,6-1.41,9.08a47.52,47.52,0,0,0,8.85,5.56c4.31,2.24,8.66,4.42,12.85,6.87,6.11,3.57,11.23,8.16,13.73,15.22,1.45-1.45.43-3.07,1.11-4.44a7,7,0,0,1,1.34,3.37c-4.59,7.13-8.43,14.51-9.74,23-1.23,8,2.44,14.94,12.76,14.18,7.59-.56,14.56-3.27,21.69-5.48,3.69-1.15,7.2-2.79,11-3.59,3.16-.66,6.38-1.23,8.66,1.6s.83,5.65-.82,8.83c-5.89,2-12.1,4.22-18.34,6.31a80.83,80.83,0,0,1-19.2,4.07c1.93,5,6.12,6.69,9.82,8.74a18.2,18.2,0,0,1-18-7.67c-4-5.45-8.15-11.23-8.44-19.17-16.73,10.38-34,8.93-51.84,2.82-9.4,4-19.64,5.14-30.08,4.26-13.11-1.1-24.43-5.86-32.35-16.92a42.43,42.43,0,0,1-6.1-14C224.05,92.61,223.56,90.71,222.9,88.21Z"/><path d="M366.1,110.49c-2.92,3.08-3.68,6.5-4.69,9.91a6.4,6.4,0,0,1-1.35.42c-8.45.7-11.06-2.49-8.63-10.64a24.64,24.64,0,0,1,8.25-12.79c1.71-.3,2.52.84,3.36,1.66a28.34,28.34,0,0,0,47.48-14.56c1.61-7,3.6-14,5.42-20.94,1.91-7.35,1.92-7.35,8.81-10.93-7.46-3.29-15.32-3.7-22.21-7.11,11.79,1.87,23.2,5.22,34.86,8.19A92.63,92.63,0,0,1,434.33,66c-2.32.8-3.85-1-5.88-.18C423,79.58,423.29,95.6,413.12,108a54.92,54.92,0,0,1,6.13,2.84c4.17,2.62,5.66,6.68,5.78,11.44.47,18.29-15.53,38.6-33.45,42.39-19.22,4.07-36.55-5.58-43.76-24.48-1.25-3.3-3-6.56-2.47-10.58,1.89.35,2,1.78,2.56,2.95,2.12,5,4.6,9.69,8.66,13.37,13.17,12,33.56,10.68,46-2.78a42.28,42.28,0,0,0,11-20.86,23.26,23.26,0,0,0,.41-3c.54-7.69-2.88-11-10.66-10.71a46.13,46.13,0,0,0-17.93,4.8C378.12,116.88,372,116,366.1,110.49Z"/><path d="M80.46,125.34c-.26-1.51-.47-2.71-.73-4.2-4,.25-7.64,2-11.47,2.8-20.15,4.14-38.33.89-52.95-14.52C5.42,99,.89,86.16,0,72c1.32,1.61,1.52,3.64,2.07,5.54,3.74,12.73,10.42,23.31,22,30.38,10.84,6.61,22.63,7.42,34.7,5.28A131.74,131.74,0,0,0,82.62,107a17.4,17.4,0,0,1,3.28-.61c.39,3.41.37,3.43-5.75,7.14,9.06,1,17.31.58,25.52.5.12-1.76-.86-1.68-1.46-1.92a6.62,6.62,0,0,1-4.45-6.66c0-12.19-.93-24.45,1.91-36.46,1.85-7.87,4.07-15.68,10.06-21.68a12,12,0,0,1,13.45-2.86c4.69,1.76,6.48,5.95,7.21,10.58.67,4.31,1,8.65.5,11.66-.09-1.9,0-5.11-1.75-8.09-2.4-4.15-6.21-4.88-9.93-1.78-2.5,2.07-3.74,5-5,7.78a58.35,58.35,0,0,0-5.14,21.66c-.25,7.59-.15,15.19-.19,22.79a3.34,3.34,0,0,0,.67,2.53c1.38,1.22,3.4,0,5.26,1.3a56.86,56.86,0,0,1,.11,12.44Z"/><path d="M269.65,58.72C268,58.26,268,57,267.42,56.07a8.71,8.71,0,0,0-11.87-3.3A8.83,8.83,0,0,0,253,55a21.88,21.88,0,0,0-4.6,11.24c-1.55,10.86.78,21,5.87,30.71a3.66,3.66,0,0,0,1.39.19c20.93-6,31.2-25.15,27-42.41-2-8.17-8.13-17.6-20.29-19.49,6.43-.94,13.06,1.2,19.07,5.36a27.42,27.42,0,0,1,7.68,8,8.35,8.35,0,0,1,1.49,5.65c-.78,6,1.77,10.6,6,14.54,5.66,5.28,12.92,7.93,19.48,11.72,3.46,2,6.95,4,9.85,6.71s4.84,6.27,3.5,11.54c-10.55-9.89-25.19-12.42-35.09-23.64-4.78,15.43-13,26.86-29.1,31.64l4,2.62c-8.88.72-18.29-4.29-24-13.61-8.05-13.09-11.1-27.12-6.26-42.12,2.11-6.52,5.69-12.08,13.32-13.05,9.24-1.17,15.66,3.77,17.26,13.05C269.76,55.25,270.28,56.85,269.65,58.72Z"/><path d="M57.48,111.13C44.07,111.42,34.42,106,27.1,96,21,87.66,18,78,16.73,67.93c-1.8-13.77-1.64-27.59,2.09-41.12,2.06-7.46,5.26-14.35,12.44-18.36C44.45,1.08,71,4.36,73.35,28.09a23.91,23.91,0,0,0,.64,3,2.62,2.62,0,0,0,3.18.61c1-1.3,1.11-20.4.14-24.93C69.31,4.69,61.49,1,52.79,1A95.87,95.87,0,0,1,78.35,5c2.06-.52,1.49-2.22,2.71-2.87a5.27,5.27,0,0,1,4.17,1.69A5.8,5.8,0,0,1,86.8,7.53c.55,11.69.17,23.37.17,35.52a85.46,85.46,0,0,1-12.9.08c-1.27-2.13-.73-4-.77-5.85-.23-11.71-6.88-19.13-18.46-20.55-4.52-.55-9.05-.55-13.29,1.13-5.6,2.21-8.83,6.8-10.72,12.29-4.68,13.61-4.68,27.61-3.11,41.7a59.65,59.65,0,0,0,6.5,21.68C39.11,102.63,46.37,108.78,57.48,111.13Z"/><path d="M227.29,106.49c.79,4.83.3,9.27.3,13.8-4.83,2.91-10,4.07-15.36,4.68-13.83,1.58-27.16.57-39.09-7.7-6.06-4.21-9.92-10-12.91-16.58-.53-1.17-.49-2.77-2.53-3.64v14.44c1.27,1.22,3.48.17,5.31,1.5.75,3.84.24,7.9.4,11.82-2,1.38-3.9.74-5.71.76-4.62.07-9.24.18-13.85,0A11.75,11.75,0,0,1,132.94,113a11.14,11.14,0,0,1,.27-1.81c5.78,4.8,12.29,2.65,19,2.26-6.36-2-6.14-6.73-6.09-11.66.13-13.32.1-26.65,0-40,0-6.91-.84-13.63-5.1-19.53-1.72-2.39-4.33-3.66-6.56-5.94,2.31-1.07,4.26-.44,6.16.29,8.57,3.32,13,10.09,15.32,18.52a43.93,43.93,0,0,1,1.26,13.32c-.25,7.23-.06,14.41,2.16,21.42,4.48,14.14,14.53,21.69,28.79,23.76a63.37,63.37,0,0,0,23.45-.85,10,10,0,0,0,5.54-3.08C219.5,107.2,223.21,106.57,227.29,106.49Z"/><path d="M381.79,102.73c-10.85.53-18.9-8.93-16-20,3-11.28,5.9-22.58,8.88-33.86,1.85-7,.52-9.41-6.49-11.42-2-.58-4.11-1-6.16-1.52-.91-.22-2.06-.13-2.22-1.5.49-1,1.27-.58,1.94-.4l15.15,4c7.4,2,11,8,9.16,15.34-3,11.67-5.79,23.38-9.08,35-1.47,5.2-.61,9.25,3.4,12.74A16.8,16.8,0,0,1,381.79,102.73Z"/><path d="M97.29.17C104.76-1,110.53,3.69,110.79,11c.36,9.67.09,19.37.09,29-4.83,4.68-7.32,10.64-10.09,16.7-1.49-1.85-1.1-3.63-1.11-5.3V11.84C99.63,8,100.35,3.9,97.29.17Z"/><path d="M361.23,47.38a6.09,6.09,0,0,1-4.52-1.4,24.09,24.09,0,0,1,2.3-8.49C363.16,40.37,363.42,41.54,361.23,47.38Z"/><path d="M308.24,109.49c-6.64.63-12.46-1.68-18.07-4.17a2.71,2.71,0,0,1,.39-3.36C296.55,104,301.72,108.28,308.24,109.49Z"/><path d="M398.57,56.49c1.09-2.59.57-5.55,2.67-7.64,3.79,1.69,4.22,3.21,2.61,9.16C402,58.7,400.34,58.18,398.57,56.49Z"/></g></g></svg>